<svg width="22" height="25" viewBox="0 0 22 25" fill="none" xmlns="http://www.w3.org/2000/svg">
<path d="M13.1097 1.3185C14.0862 1.91252 14.827 2.78541 15.3258 3.80768C15.4178 4.31006 15.4403 4.73638 15.4361 5.24403C15.4352 5.39365 15.4343 5.54326 15.4333 5.69741C15.4321 5.81118 15.4309 5.92495 15.4297 6.04216C15.5946 6.03925 15.5946 6.03925 15.7628 6.03628C16.2597 6.02859 16.7565 6.02377 17.2533 6.01901C17.4264 6.0159 17.5994 6.0128 17.7777 6.0096C18.0259 6.00781 18.0259 6.00781 18.2791 6.00598C18.4319 6.00404 18.5847 6.0021 18.7421 6.0001C19.1231 6.04216 19.1231 6.04216 19.4925 6.41264C19.9247 8.26564 20.0262 10.2319 20.2211 12.124C20.2536 12.4368 20.2862 12.7496 20.3188 13.0624C20.3866 13.7133 20.4539 14.3642 20.5209 15.0151C20.6065 15.8462 20.6933 16.6772 20.7805 17.5082C20.8478 18.1523 20.9145 18.7964 20.981 19.4405C21.0127 19.747 21.0447 20.0534 21.0769 20.3597C21.1218 20.7881 21.1657 21.2165 21.2094 21.645C21.2471 22.0093 21.2471 22.0093 21.2856 22.3809C21.3417 23.1175 21.3611 23.8281 21.3392 24.5663C21.0508 24.8556 20.7717 24.7755 20.3706 24.7763C20.117 24.7775 20.117 24.7775 19.8582 24.7787C19.6712 24.7786 19.4843 24.7786 19.2916 24.7785C19.0958 24.7791 18.9001 24.7797 18.6984 24.7804C18.0476 24.7821 17.3969 24.7825 16.7462 24.7827C16.296 24.7833 15.8459 24.7839 15.3957 24.7845C14.4507 24.7857 13.5057 24.786 12.5607 24.7859C11.347 24.7859 10.1333 24.7884 8.91954 24.7916C7.98945 24.7936 7.05936 24.794 6.12926 24.7939C5.68165 24.7941 5.23403 24.795 4.78642 24.7964C4.16159 24.7982 3.53679 24.7977 2.91195 24.7966C2.63204 24.7981 2.63204 24.7981 2.34648 24.7997C2.09206 24.7985 2.09206 24.7985 1.8325 24.7974C1.68464 24.7975 1.53678 24.7976 1.38444 24.7977C1.02514 24.7516 1.02514 24.7516 0.655792 24.3811C0.648352 23.8932 0.648352 23.8932 0.704124 23.2667C0.73461 22.9146 0.73461 22.9146 0.765712 22.5554C0.790341 22.2995 0.815264 22.0436 0.840465 21.7877C0.85258 21.6616 0.864694 21.5355 0.877176 21.4056C0.970893 20.4366 1.07254 19.4685 1.17519 18.5004C1.20763 18.1916 1.24005 17.8827 1.27244 17.5739C1.33984 16.932 1.40753 16.2902 1.47546 15.6484C1.56223 14.8284 1.6484 14.0083 1.73437 13.1882C1.80104 12.5527 1.86795 11.9172 1.93495 11.2817C1.96682 10.9793 1.99862 10.6769 2.03036 10.3744C2.07474 9.95217 2.11942 9.52995 2.1642 9.10774C2.18948 8.86834 2.21475 8.62894 2.2408 8.38229C2.26623 8.16021 2.29165 7.93814 2.31785 7.70934C2.34006 7.47418 2.36228 7.23903 2.38516 6.99675C2.50252 6.41264 2.50252 6.41264 3.05654 6.04216C3.44154 6.0001 3.44154 6.0001 3.8782 6.00598C4.11298 6.00777 4.11298 6.00777 4.3525 6.0096C4.59657 6.01426 4.59657 6.01426 4.84557 6.01901C5.09285 6.02151 5.09285 6.02151 5.34512 6.02407C5.75191 6.02844 6.1586 6.03453 6.56534 6.04216C6.55962 5.81698 6.55391 5.59181 6.54802 5.35981C6.55007 4.1951 6.87255 3.19845 7.64957 2.3149C9.13531 0.959807 11.1954 0.467587 13.1097 1.3185ZM8.41207 4.18975C8.11728 4.71211 8.11728 4.71211 8.2274 6.04216C10.1166 6.04216 12.0058 6.04216 13.9523 6.04216C13.8413 4.42749 13.8413 4.42749 13.0289 3.26354C11.1987 2.00705 9.69109 2.46692 8.41207 4.18975ZM3.97991 7.70934C3.37118 12.8909 2.83973 18.0784 2.31785 23.2696C8.04642 23.2696 13.775 23.2696 19.6771 23.2696C19.3778 19.787 19.3778 19.787 19.0358 16.3093C19.0122 16.0827 18.9886 15.8562 18.9642 15.6227C18.9152 15.1542 18.866 14.6857 18.8167 14.2172C18.741 13.4984 18.6664 12.7796 18.5918 12.0607C18.5437 11.6013 18.4955 11.142 18.4472 10.6826C18.4251 10.4688 18.4029 10.2551 18.3801 10.0348C18.3592 9.83723 18.3382 9.63965 18.3166 9.43607C18.2984 9.26299 18.2803 9.08991 18.2615 8.91159C18.2016 8.3994 18.2016 8.3994 18.0151 7.70934C17.1619 7.70934 16.3087 7.70934 15.4297 7.70934C15.3687 8.32063 15.3078 8.93193 15.245 9.56175C14.3678 9.74699 14.3678 9.74699 13.9523 9.74699C13.9523 9.07457 13.9523 8.40214 13.9523 7.70934C12.0631 7.70934 10.1739 7.70934 8.2274 7.70934C8.16645 8.2595 8.10551 8.80967 8.04272 9.37651C7.98178 9.49877 7.92084 9.62103 7.85805 9.74699C7.55036 9.75491 7.24238 9.75452 6.93468 9.74699C6.51602 9.32704 6.6126 8.24433 6.56534 7.70934C5.71215 7.70934 4.85896 7.70934 3.97991 7.70934Z" fill="white"/>
</svg>
