<svg width="658" height="154" viewBox="0 0 658 154" fill="none" xmlns="http://www.w3.org/2000/svg">
<path d="M60.6335 4.16675V4.88374C58.3337 4.88374 56.2233 5.66838 54.2888 7.25118C52.3542 8.83398 50.6903 11.1067 49.2969 14.0694L30.4927 54.397H26.9753L9.18572 14.0694C8.37402 12.2025 7.62997 10.6873 6.96709 9.51039C6.29068 8.33344 5.6278 7.39999 4.95139 6.71005C4.27498 6.02011 3.55798 5.5331 2.75982 5.27606C1.97518 5.01903 1.05526 4.88374 6.10352e-05 4.88374V4.16675H30.3574V4.88374C27.4894 4.88374 25.5143 5.74955 24.432 7.46763C23.3498 9.18571 23.4174 11.3908 24.6079 14.0694L34.01 34.957L43.845 14.0694C45.3331 10.9579 45.4278 8.65811 44.1291 7.14296C42.8439 5.64132 40.6388 4.88374 37.5273 4.88374V4.16675H60.6335Z" fill="white"/>
<path d="M60.9176 35.6604C60.9176 32.833 61.4181 30.2491 62.4192 27.8816C63.4203 25.5142 64.8137 23.4714 66.5859 21.7398C68.3581 20.0217 70.4685 18.6689 72.9306 17.6814C75.3928 16.7073 78.0849 16.2068 81.007 16.2068C83.9291 16.2068 86.6212 16.6938 89.0833 17.6814C91.5454 18.6689 93.6694 20.0082 95.428 21.7398C97.2002 23.4579 98.5801 25.5007 99.5947 27.8816C100.596 30.2491 101.096 32.8465 101.096 35.6604C101.096 38.4742 100.596 41.0175 99.5947 43.412C98.5936 45.8065 97.2002 47.8628 95.428 49.5809C93.6558 51.299 91.5454 52.6518 89.0833 53.6394C86.6212 54.6134 83.9291 55.1139 81.007 55.1139C78.0849 55.1139 75.3928 54.6269 72.9306 53.6394C70.4685 52.6653 68.3446 51.3125 66.5859 49.5809C64.8137 47.8628 63.4338 45.8065 62.4192 43.412C61.4181 41.0175 60.9176 38.4336 60.9176 35.6604ZM73.5394 35.5927C73.5394 45.2113 76.0286 50.0138 81.007 50.0138C83.4962 50.0138 85.3766 48.8098 86.6347 46.3882C87.9064 43.9667 88.5422 40.3682 88.5422 35.5927C88.5422 30.8173 87.9064 27.2052 86.6347 24.7972C85.3631 22.3757 83.4826 21.1716 81.007 21.1716C76.0286 21.1716 73.5394 25.9742 73.5394 35.5927Z" fill="white"/>
<path d="M119.616 5.31665V17.0862H129.952V21.3205H119.616V41.9105C119.616 44.0209 120.076 45.6307 121.01 46.7536C121.943 47.8764 123.12 48.4446 124.568 48.4446C126.381 48.4446 128.275 47.6329 130.236 46.0095L130.669 46.5101C129.857 48.1334 128.802 49.5945 127.517 50.8932C126.421 51.989 125.041 53.0036 123.391 53.91C121.74 54.8164 119.698 55.2763 117.249 55.2763C113.948 55.2763 111.418 54.2482 109.646 52.1919C107.874 50.1356 106.995 46.9971 106.995 42.7898V21.3341H102.476V18.5337C106.44 17.8167 109.714 16.3692 112.271 14.1912C114.827 12.0131 116.803 9.06397 118.196 5.33018H119.63L119.616 5.31665Z" fill="white"/>
<path d="M150.61 23.6066C151.083 22.6461 151.679 21.7397 152.368 20.8739C153.058 20.0081 153.843 19.2505 154.695 18.5741C155.561 17.8977 156.508 17.3701 157.563 16.9642C158.618 16.5584 159.714 16.3555 160.864 16.3555C162.014 16.3555 163.15 16.5584 164.124 16.9642C165.098 17.3701 165.951 17.9383 166.668 18.6553C167.385 19.3723 167.953 20.184 168.359 21.0903C168.765 21.9967 168.968 22.9572 168.968 23.9583C168.968 25.6764 168.413 27.1104 167.317 28.2603C166.221 29.4102 164.801 29.9784 163.083 29.9784C161.933 29.9784 160.972 29.7213 160.215 29.2208C159.444 28.7203 158.754 28.1791 158.131 27.6109C157.509 27.0428 156.9 26.5016 156.305 26.0011C155.71 25.5005 154.979 25.2435 154.114 25.2435C153.058 25.2435 152.206 25.6088 151.57 26.3528C150.921 27.0969 150.596 28.0168 150.596 29.1126V46.6181C150.596 49.2561 151.097 51.0824 152.098 52.1105C153.099 53.1387 154.614 53.6527 156.616 53.6527V54.3697H131.711V53.6527C133.483 53.6527 134.849 53.071 135.796 51.8941C136.757 50.7171 137.23 48.7285 137.23 45.9011V24.1612C137.23 21.8615 136.743 20.2381 135.756 19.2776C134.768 18.3171 133.429 17.8436 131.697 17.8436V17.0589H150.569V23.5931L150.61 23.6066Z" fill="white"/>
<path d="M209.092 40.2594C208.132 43.0327 206.82 45.4948 205.142 47.6458C204.425 48.5522 203.586 49.4586 202.626 50.3785C201.665 51.2849 200.569 52.0831 199.325 52.7865C198.08 53.4765 196.7 54.0447 195.199 54.4776C193.697 54.9105 192.006 55.1269 190.139 55.1269C187.407 55.1269 184.904 54.6399 182.604 53.6523C180.304 52.6783 178.316 51.3255 176.611 49.5939C174.906 47.8758 173.594 45.8195 172.661 43.425C171.727 41.0305 171.267 38.4331 171.267 35.6057C171.267 32.7783 171.727 30.1944 172.661 27.827C173.594 25.4595 174.893 23.4168 176.57 21.6987C178.248 19.9806 180.237 18.6413 182.563 17.6808C184.877 16.7203 187.434 16.2468 190.207 16.2468C192.98 16.2468 195.51 16.7203 197.81 17.6808C200.11 18.6413 202.085 19.9536 203.762 21.6311C205.44 23.3086 206.738 25.2701 207.672 27.5158C208.605 29.7615 209.065 32.2101 209.065 34.8346L184.16 34.7669C184.782 38.3519 186.203 41.1793 188.435 43.2356C190.653 45.2919 193.4 46.32 196.646 46.32C198.608 46.32 200.312 45.9954 201.746 45.346C203.18 44.6967 204.398 43.9661 205.413 43.1544C206.562 42.248 207.536 41.2199 208.348 40.07L209.065 40.2865L209.092 40.2594ZM183.835 30.005H196.822C196.443 26.8529 195.699 24.5396 194.604 23.0786C193.508 21.6175 192.047 20.887 190.22 20.887C188.205 20.887 186.662 21.6716 185.594 23.2544C184.511 24.8372 183.93 27.0829 183.835 30.005Z" fill="white"/>
<path d="M232.198 41.0442H232.915C233.064 42.1941 233.592 43.3575 234.498 44.5209C235.405 45.6979 236.568 46.7396 237.975 47.673C239.382 48.6065 240.965 49.3776 242.71 49.9728C244.455 50.568 246.241 50.8657 248.053 50.8657C249.961 50.8657 251.476 50.5275 252.572 49.8646C253.668 49.2017 254.222 48.2683 254.222 47.0642C254.222 45.8602 253.668 44.9132 252.572 44.1963C251.476 43.4793 250.083 42.8299 248.405 42.2617C246.728 41.6935 244.928 41.0983 242.994 40.5031C241.059 39.9078 239.247 39.1367 237.583 38.2033C235.905 37.2698 234.525 36.0793 233.416 34.6183C232.32 33.1572 231.766 31.3039 231.766 29.0582C231.766 27.286 232.131 25.6491 232.875 24.1474C233.619 22.6458 234.633 21.3336 235.919 20.2378C237.204 19.142 238.746 18.2762 240.505 17.6539C242.277 17.0316 244.211 16.7205 246.322 16.7205C247.756 16.7205 249.109 16.8557 250.38 17.1128C251.652 17.3698 252.802 17.6539 253.857 17.938C254.912 18.2221 255.846 18.5062 256.657 18.7632C257.469 19.0203 258.159 19.1555 258.741 19.1555C259.417 19.1555 260.026 18.9661 260.567 18.5874C261.122 18.2086 261.446 17.708 261.541 17.0857H262.258V30.641H261.609C261.325 29.207 260.77 27.9624 259.958 26.9072C259.147 25.852 258.159 24.9862 257.023 24.2827C255.873 23.5928 254.615 23.0787 253.262 22.7405C251.895 22.4023 250.502 22.24 249.068 22.24C247.147 22.24 245.659 22.5241 244.577 23.1058C243.494 23.674 242.967 24.5127 242.967 25.622C242.967 26.7313 243.494 27.5836 244.55 28.2059C245.605 28.8282 246.931 29.3829 248.527 29.8564C250.123 30.3298 251.855 30.8439 253.695 31.358C255.535 31.8856 257.253 32.6026 258.863 33.509C260.459 34.4154 261.798 35.6058 262.84 37.0669C263.895 38.5279 264.423 40.4489 264.423 42.8434C264.423 44.7103 264.071 46.4284 263.381 48.0112C262.691 49.594 261.69 50.9468 260.405 52.0967C259.12 53.2466 257.564 54.153 255.737 54.8294C253.925 55.4923 251.882 55.8305 249.636 55.8305C248.013 55.8305 246.498 55.6682 245.118 55.357C243.724 55.0459 242.48 54.7077 241.357 54.3559C240.234 53.9907 239.22 53.666 238.313 53.3549C237.407 53.0437 236.595 52.8949 235.878 52.8949C235.066 52.8949 234.404 53.0978 233.903 53.5037C233.402 53.9095 233.078 54.3289 232.929 54.7618H232.212V41.0577L232.198 41.0442Z" fill="white"/>
<path d="M303.952 29.7076V46.929C303.952 48.0248 304.222 48.8906 304.777 49.5129C305.332 50.1352 305.981 50.4463 306.752 50.4463C307.523 50.4463 308.213 50.1622 308.836 49.5805L309.269 50.0811C308.646 51.0416 307.902 51.8939 307.05 52.665C306.238 53.3414 305.251 53.9366 304.114 54.4642C302.978 54.9918 301.598 55.2489 300.029 55.2489C297.878 55.2489 296.011 54.6942 294.428 53.5984C292.845 52.5026 291.871 50.8657 291.492 48.7147C290.397 50.6357 288.895 52.1779 287.015 53.382C285.121 54.5724 282.888 55.1812 280.305 55.1812C278.722 55.1812 277.261 54.9512 275.894 54.5048C274.528 54.0584 273.351 53.409 272.336 52.5703C271.335 51.7315 270.537 50.7169 269.969 49.5264C269.401 48.3359 269.103 46.9966 269.103 45.5085C269.103 43.4522 269.644 41.7477 270.713 40.4084C271.795 39.0691 273.135 37.9327 274.772 36.9993C276.395 36.0658 278.14 35.2542 280.007 34.5642C281.874 33.8743 283.619 33.1438 285.242 32.3726C286.866 31.6151 288.219 30.7357 289.301 29.7482C290.383 28.7741 290.911 27.516 290.911 25.9873C290.911 24.5533 290.424 23.3629 289.436 22.4294C288.449 21.496 287.177 21.036 285.594 21.036C284.498 21.036 283.565 21.1983 282.794 21.5365C282.023 21.8748 281.644 22.2535 281.644 22.6864C281.644 22.8758 281.739 23.0517 281.928 23.2276C282.117 23.3899 282.347 23.5928 282.604 23.8363C282.861 24.0798 283.091 24.4045 283.281 24.8374C283.47 25.2703 283.565 25.8926 283.565 26.7043C283.565 28.2871 282.97 29.5588 281.766 30.5463C280.575 31.5339 279.128 32.0209 277.464 32.0209C275.651 32.0209 274.095 31.4527 272.796 30.3299C271.511 29.207 270.862 27.8136 270.862 26.1361C270.862 24.9457 271.241 23.7687 272.012 22.6188C272.783 21.4689 273.865 20.4408 275.272 19.5344C276.679 18.628 278.397 17.8975 280.399 17.3428C282.401 16.7881 284.674 16.5176 287.218 16.5176C292.575 16.5176 296.701 17.7216 299.596 20.1431C302.491 22.5647 303.938 25.7573 303.938 29.7211L303.952 29.7076ZM291.317 40.8278V34.5913C290.545 35.3624 289.639 35.9847 288.584 36.4582C287.529 36.9317 286.528 37.4457 285.567 38.0004C284.607 38.555 283.795 39.1909 283.132 39.9349C282.456 40.679 282.131 41.6936 282.131 42.9788C282.131 44.2639 282.483 45.2786 283.173 45.9956C283.863 46.7125 284.837 47.0778 286.081 47.0778C287.664 47.0778 288.922 46.4961 289.883 45.3191C290.843 44.1422 291.317 42.6541 291.317 40.8278Z" fill="white"/>
<path d="M326.192 5.31665V17.0862H336.528V21.3205H326.192V41.9105C326.192 44.0209 326.652 45.6307 327.586 46.7536C328.519 47.8764 329.696 48.4446 331.144 48.4446C332.956 48.4446 334.85 47.6329 336.812 46.0095L337.245 46.5101C336.433 48.1334 335.378 49.5945 334.093 50.8932C332.997 51.989 331.617 53.0036 329.967 53.91C328.316 54.8164 326.273 55.2763 323.825 55.2763C320.524 55.2763 317.994 54.2482 316.222 52.1919C314.45 50.1356 313.57 46.9971 313.57 42.7898V21.3341H309.052V18.5337C313.016 17.8167 316.29 16.3692 318.846 14.1912C321.403 12.0131 323.378 9.06397 324.772 5.33018H326.206L326.192 5.31665Z" fill="white"/>
<path d="M338.327 17.0724H357.199V45.9145C357.199 48.7419 357.686 50.7305 358.674 51.9075C359.648 53.0845 361.055 53.6662 362.867 53.6662V54.3832H338.327V53.6662C340.099 53.6662 341.466 53.0845 342.413 51.9075C343.373 50.7305 343.847 48.7419 343.847 45.9145V24.1747C343.847 21.8749 343.427 20.2515 342.589 19.291C341.75 18.3305 340.329 17.857 338.314 17.857V17.0724H338.327ZM342.562 7.31852C342.562 6.31743 342.778 5.37046 343.211 4.47759C343.644 3.59826 344.212 2.81362 344.929 2.15074C345.646 1.48786 346.498 0.960259 347.472 0.567941C348.446 0.189151 349.488 -0.000244141 350.597 -0.000244141C351.707 -0.000244141 352.735 0.189151 353.722 0.567941C354.696 0.946731 355.549 1.47433 356.266 2.15074C356.983 2.82715 357.551 3.59826 357.984 4.47759C358.417 5.35693 358.633 6.3039 358.633 7.31852C358.633 8.33313 358.417 9.26658 357.984 10.1594C357.551 11.0388 356.983 11.8234 356.266 12.4863C355.549 13.1627 354.696 13.6768 353.722 14.0691C352.735 14.4479 351.707 14.6373 350.597 14.6373C349.488 14.6373 348.46 14.4479 347.472 14.0691C346.485 13.6903 345.646 13.1627 344.929 12.4863C344.212 11.8234 343.63 11.0388 343.211 10.1594C342.778 9.28011 342.562 8.33313 342.562 7.31852Z" fill="white"/>
<path d="M365.302 41.0442H366.019C366.168 42.1941 366.696 43.3575 367.602 44.5209C368.508 45.6979 369.672 46.7396 371.079 47.673C372.486 48.6065 374.069 49.3776 375.814 49.9728C377.559 50.568 379.345 50.8657 381.157 50.8657C383.065 50.8657 384.58 50.5275 385.676 49.8646C386.772 49.2017 387.326 48.2683 387.326 47.0642C387.326 45.8602 386.772 44.9132 385.676 44.1963C384.58 43.4793 383.187 42.8299 381.509 42.2617C379.832 41.6935 378.032 41.0983 376.098 40.5031C374.163 39.9078 372.35 39.1367 370.687 38.2033C369.009 37.2698 367.629 36.0793 366.52 34.6183C365.424 33.1572 364.869 31.3039 364.869 29.0582C364.869 27.286 365.235 25.6491 365.979 24.1474C366.723 22.6458 367.737 21.3336 369.023 20.2378C370.308 19.142 371.85 18.2762 373.609 17.6539C375.381 17.0316 377.315 16.7205 379.426 16.7205C380.86 16.7205 382.213 16.8557 383.484 17.1128C384.756 17.3698 385.906 17.6539 386.961 17.938C388.016 18.2221 388.95 18.5062 389.761 18.7632C390.573 19.0203 391.263 19.1555 391.845 19.1555C392.521 19.1555 393.13 18.9661 393.671 18.5874C394.226 18.2086 394.55 17.708 394.645 17.0857H395.362V30.641H394.713C394.428 29.207 393.874 27.9624 393.062 26.9072C392.25 25.852 391.263 24.9862 390.127 24.2827C388.977 23.5928 387.719 23.0787 386.366 22.7405C384.999 22.4023 383.606 22.24 382.172 22.24C380.251 22.24 378.763 22.5241 377.681 23.1058C376.598 23.674 376.071 24.5127 376.071 25.622C376.071 26.7313 376.598 27.5836 377.654 28.2059C378.709 28.8282 380.035 29.3829 381.631 29.8564C383.227 30.3298 384.959 30.8439 386.799 31.358C388.638 31.8856 390.357 32.6026 391.966 33.509C393.563 34.4154 394.902 35.6058 395.944 37.0669C396.999 38.5279 397.526 40.4489 397.526 42.8434C397.526 44.7103 397.175 46.4284 396.485 48.0112C395.795 49.594 394.794 50.9468 393.509 52.0967C392.223 53.2466 390.668 54.153 388.841 54.8294C387.029 55.4923 384.986 55.8305 382.74 55.8305C381.117 55.8305 379.602 55.6682 378.222 55.357C376.828 55.0459 375.584 54.7077 374.461 54.3559C373.338 53.9907 372.323 53.666 371.417 53.3549C370.511 53.0437 369.699 52.8949 368.982 52.8949C368.17 52.8949 367.507 53.0978 367.007 53.5037C366.506 53.9095 366.182 54.3289 366.033 54.7618H365.316V41.0577L365.302 41.0442Z" fill="white"/>
<path d="M399.313 17.0723H404.48V14.2043C404.48 12.2021 404.927 10.3488 405.806 8.68481C406.685 7.00731 407.916 5.5598 409.472 4.34226C411.028 3.12472 412.881 2.17774 415.032 1.50133C417.183 0.838449 419.524 0.500244 422.067 0.500244C424.177 0.500244 425.977 0.730224 427.478 1.17665C428.98 1.63661 430.211 2.23186 431.171 2.97591C432.132 3.71996 432.849 4.55871 433.322 5.49215C433.796 6.4256 434.039 7.37258 434.039 8.33308C434.039 9.86177 433.579 11.0928 432.646 12.0263C431.713 12.9597 430.481 13.4197 428.953 13.4197C427.559 13.4197 426.423 13.0138 425.544 12.2021C424.664 11.3905 424.218 10.3082 424.218 8.96891C424.218 8.44131 424.272 8.0084 424.394 7.6702C424.516 7.33199 424.651 7.0479 424.786 6.80439C424.935 6.56088 425.057 6.35796 425.178 6.19562C425.3 6.03328 425.354 5.84389 425.354 5.65449C425.354 5.2757 425.097 4.95103 424.597 4.68046C424.096 4.42343 423.433 4.28814 422.622 4.28814C421.093 4.28814 419.902 5.0322 419.064 6.50677C418.225 7.99487 417.806 10.4029 417.806 13.7579V17.0588H428.276V21.1443H417.806V47.7678C417.806 49.8241 418.266 51.3122 419.199 52.2186C420.132 53.125 421.512 53.585 423.325 53.585V54.3696H398.934V53.585C400.746 53.585 402.126 53.0979 403.06 52.1104C403.993 51.1363 404.453 49.54 404.453 47.3349V21.1714H399.285V17.0858L399.313 17.0723Z" fill="white"/>
<path d="M465.763 29.7076V46.929C465.763 48.0248 466.033 48.8906 466.588 49.5129C467.143 50.1352 467.792 50.4463 468.563 50.4463C469.334 50.4463 470.024 50.1622 470.647 49.5805L471.08 50.0811C470.457 51.0416 469.713 51.8939 468.861 52.665C468.049 53.3414 467.062 53.9366 465.925 54.4642C464.789 54.9918 463.409 55.2489 461.84 55.2489C459.689 55.2489 457.822 54.6942 456.239 53.5984C454.656 52.5026 453.682 50.8657 453.303 48.7147C452.208 50.6357 450.706 52.1779 448.826 53.382C446.932 54.5724 444.699 55.1812 442.116 55.1812C440.533 55.1812 439.072 54.9512 437.705 54.5048C436.339 54.0584 435.162 53.409 434.148 52.5703C433.146 51.7315 432.348 50.7169 431.78 49.5264C431.212 48.3359 430.914 46.9966 430.914 45.5085C430.914 43.4522 431.455 41.7477 432.524 40.4084C433.606 39.0691 434.946 37.9327 436.583 36.9993C438.206 36.0658 439.951 35.2542 441.818 34.5642C443.685 33.8743 445.43 33.1438 447.053 32.3726C448.677 31.6151 450.03 30.7357 451.112 29.7482C452.194 28.7741 452.722 27.516 452.722 25.9873C452.722 24.5533 452.235 23.3629 451.247 22.4294C450.26 21.496 448.988 21.036 447.405 21.036C446.309 21.036 445.376 21.1983 444.605 21.5365C443.834 21.8748 443.455 22.2535 443.455 22.6864C443.455 22.8758 443.55 23.0517 443.739 23.2276C443.928 23.3899 444.158 23.5928 444.415 23.8363C444.672 24.0798 444.902 24.4045 445.092 24.8374C445.281 25.2703 445.376 25.8926 445.376 26.7043C445.376 28.2871 444.781 29.5588 443.577 30.5463C442.386 31.5339 440.939 32.0209 439.275 32.0209C437.462 32.0209 435.906 31.4527 434.607 30.3299C433.322 29.207 432.673 27.8136 432.673 26.1361C432.673 24.9457 433.052 23.7687 433.823 22.6188C434.594 21.4689 435.676 20.4408 437.083 19.5344C438.49 18.628 440.208 17.8975 442.21 17.3428C444.212 16.7881 446.485 16.5176 449.029 16.5176C454.386 16.5176 458.512 17.7216 461.407 20.1431C464.302 22.5647 465.749 25.7573 465.749 29.7211L465.763 29.7076ZM453.128 40.8278V34.5913C452.356 35.3624 451.45 35.9847 450.395 36.4582C449.34 36.9317 448.339 37.4457 447.378 38.0004C446.418 38.555 445.606 39.1909 444.943 39.9349C444.267 40.679 443.942 41.6936 443.942 42.9788C443.942 44.2639 444.294 45.2786 444.984 45.9956C445.674 46.7125 446.648 47.0778 447.892 47.0778C449.475 47.0778 450.733 46.4961 451.694 45.3191C452.654 44.1422 453.128 42.6541 453.128 40.8278Z" fill="white"/>
<path d="M486.136 31.9263C486.136 36.2283 487.192 39.5968 489.288 42.0049C491.399 44.4264 494.334 45.6304 498.109 45.6304C500.111 45.6304 501.829 45.3328 503.236 44.7376C504.643 44.1423 505.833 43.4524 506.794 42.6948C507.89 41.8831 508.796 40.9226 509.527 39.8268L510.244 40.1109C509.527 42.9383 508.404 45.441 506.875 47.6461C506.253 48.5525 505.482 49.4589 504.575 50.3788C503.669 51.2987 502.627 52.0969 501.45 52.8139C500.273 53.5309 498.948 54.0991 497.473 54.532C495.985 54.9649 494.321 55.1813 492.454 55.1813C489.681 55.1813 487.137 54.6808 484.811 53.6797C482.484 52.6786 480.482 51.2852 478.777 49.513C477.072 47.7408 475.747 45.6575 474.8 43.2359C473.839 40.8144 473.366 38.2034 473.366 35.376C473.366 32.5486 473.839 29.9783 474.8 27.665C475.76 25.3516 477.1 23.3495 478.818 21.672C480.536 19.9945 482.592 18.6957 484.986 17.7623C487.381 16.8289 490.005 16.3689 492.873 16.3689C495.363 16.3689 497.649 16.6936 499.732 17.3429C501.816 17.9923 503.588 18.8446 505.076 19.9268C506.564 21.0091 507.7 22.2266 508.526 23.593C509.337 24.9593 509.743 26.3257 509.743 27.7191C509.743 29.3019 509.216 30.7494 508.16 32.0616C507.105 33.3739 505.576 34.0367 503.574 34.0367C501.572 34.0367 499.989 33.3603 498.839 31.994C497.689 30.6276 497.311 28.869 497.689 26.718C497.974 24.9458 497.73 23.5388 496.932 22.4836C496.134 21.4284 494.93 20.9008 493.306 20.9008C491.155 20.9008 489.424 21.8884 488.098 23.8365C486.786 25.7981 486.123 28.5037 486.123 31.9399L486.136 31.9263Z" fill="white"/>
<path d="M529.413 5.31665V17.0862H539.749V21.3205H529.413V41.9105C529.413 44.0209 529.873 45.6307 530.806 46.7536C531.74 47.8764 532.917 48.4446 534.364 48.4446C536.177 48.4446 538.071 47.6329 540.033 46.0095L540.466 46.5101C539.654 48.1334 538.599 49.5945 537.313 50.8932C536.218 51.989 534.838 53.0036 533.187 53.91C531.537 54.8164 529.494 55.2763 527.046 55.2763C523.745 55.2763 521.215 54.2482 519.443 52.1919C517.671 50.1356 516.791 46.9971 516.791 42.7898V21.3341H512.273V18.5337C516.237 17.8167 519.51 16.3692 522.067 14.1912C524.624 12.0131 526.599 9.06397 527.993 5.33018H529.427L529.413 5.31665Z" fill="white"/>
<path d="M541.534 17.0724H560.406V45.9145C560.406 48.7419 560.893 50.7305 561.881 51.9075C562.855 53.0845 564.262 53.6662 566.075 53.6662V54.3832H541.534V53.6662C543.307 53.6662 544.673 53.0845 545.62 51.9075C546.58 50.7305 547.054 48.7419 547.054 45.9145V24.1747C547.054 21.8749 546.635 20.2515 545.796 19.291C544.957 18.3305 543.537 17.857 541.521 17.857V17.0724H541.534ZM545.769 7.31852C545.769 6.31743 545.985 5.37046 546.418 4.47759C546.851 3.59826 547.419 2.81362 548.136 2.15074C548.853 1.48786 549.705 0.960259 550.68 0.567941C551.654 0.189151 552.695 -0.000244141 553.805 -0.000244141C554.914 -0.000244141 555.942 0.189151 556.93 0.567941C557.904 0.946731 558.756 1.47433 559.473 2.15074C560.19 2.82715 560.758 3.59826 561.191 4.47759C561.624 5.35693 561.84 6.3039 561.84 7.31852C561.84 8.33313 561.624 9.26658 561.191 10.1594C560.758 11.0388 560.19 11.8234 559.473 12.4863C558.756 13.1627 557.904 13.6768 556.93 14.0691C555.942 14.4479 554.914 14.6373 553.805 14.6373C552.695 14.6373 551.667 14.4479 550.68 14.0691C549.692 13.6903 548.853 13.1627 548.136 12.4863C547.419 11.8234 546.838 11.0388 546.418 10.1594C545.985 9.28011 545.769 8.33313 545.769 7.31852Z" fill="white"/>
<path d="M567.576 35.6604C567.576 32.833 568.077 30.2491 569.078 27.8816C570.079 25.5142 571.472 23.4714 573.245 21.7398C575.017 20.0217 577.127 18.6689 579.589 17.6814C582.051 16.7073 584.744 16.2068 587.666 16.2068C590.588 16.2068 593.28 16.6938 595.742 17.6814C598.204 18.6689 600.328 20.0082 602.087 21.7398C603.859 23.4579 605.239 25.5007 606.253 27.8816C607.255 30.2491 607.755 32.8465 607.755 35.6604C607.755 38.4742 607.255 41.0175 606.253 43.412C605.252 45.8065 603.859 47.8628 602.087 49.5809C600.315 51.299 598.204 52.6518 595.742 53.6394C593.28 54.6134 590.588 55.1139 587.666 55.1139C584.744 55.1139 582.051 54.6269 579.589 53.6394C577.127 52.6653 575.003 51.3125 573.245 49.5809C571.472 47.8628 570.093 45.8065 569.078 43.412C568.077 41.0175 567.576 38.4336 567.576 35.6604ZM580.198 35.5927C580.198 45.2113 582.687 50.0138 587.666 50.0138C590.155 50.0138 592.035 48.8098 593.293 46.3882C594.565 43.9667 595.201 40.3682 595.201 35.5927C595.201 30.8173 594.565 27.2052 593.293 24.7972C592.022 22.3757 590.141 21.1716 587.666 21.1716C582.687 21.1716 580.198 25.9742 580.198 35.5927Z" fill="white"/>
<path d="M628.575 22.4568C629.765 20.3058 631.389 18.6012 633.418 17.3566C635.447 16.112 637.693 15.4897 640.128 15.4897C641.711 15.4897 643.226 15.7738 644.687 16.3556C646.148 16.9237 647.447 17.8166 648.597 19.0071C649.747 20.1976 650.653 21.6857 651.329 23.4579C651.992 25.2301 652.331 27.3134 652.331 29.6944V45.9147C652.331 48.7421 652.818 50.7307 653.805 51.9077C654.779 53.0846 656.186 53.6664 657.999 53.6664V54.3834H635.258V53.6664C636.408 53.6664 637.314 53.2064 637.991 52.273C638.667 51.3395 638.992 49.7026 638.992 47.3622V29.9243C638.992 28.1522 638.532 26.7182 637.625 25.6224C636.719 24.5266 635.501 23.9719 633.959 23.9719C632.417 23.9719 631.091 24.5672 630.09 25.7712C629.089 26.9617 628.588 28.5039 628.588 30.3708V48.0927C628.588 50.2031 628.913 51.6507 629.563 52.4759C630.212 53.2876 631.172 53.6934 632.471 53.6934V54.4104H609.73V53.6934C611.502 53.6934 612.869 53.1117 613.816 51.9347C614.776 50.7578 615.25 48.7691 615.25 45.9417V24.2019C615.25 21.9021 614.79 20.2787 613.856 19.3182C612.923 18.3577 611.543 17.8842 609.73 17.8842V17.0996H628.602V22.4838L628.575 22.4568Z" fill="white"/>
<path d="M73.7289 90.2735H97.4033L117.425 123.134V100.176C117.425 96.97 116.816 94.6431 115.599 93.1821C114.381 91.7211 112.433 90.9905 109.755 90.9905V90.2735H130.926V90.9905C128.248 90.9905 126.3 91.7211 125.082 93.1821C123.864 94.6431 123.256 96.97 123.256 100.176V140.504H110.986L90.6121 107.495V130.601C90.6121 133.807 91.2209 136.134 92.4384 137.595C93.6559 139.056 95.604 139.787 98.2826 139.787V140.504H77.1109V139.787C79.7895 139.787 81.7376 139.056 82.9551 137.595C84.1727 136.134 84.7814 133.807 84.7814 130.601V98.0928C83.9156 96.6994 83.1039 95.5631 82.3464 94.6431C81.5752 93.7368 80.7636 93.0198 79.9113 92.4922C79.0455 91.9646 78.1255 91.5858 77.1515 91.3423C76.1775 91.0988 75.0411 90.977 73.7424 90.977V90.26L73.7289 90.2735Z" fill="white"/>
<path d="M132.712 121.767C132.712 118.94 133.213 116.356 134.214 113.989C135.215 111.621 136.608 109.578 138.38 107.847C140.153 106.129 142.263 104.776 144.725 103.788C147.187 102.814 149.879 102.314 152.801 102.314C155.724 102.314 158.416 102.801 160.878 103.788C163.34 104.776 165.464 106.115 167.223 107.847C168.995 109.565 170.375 111.608 171.389 113.989C172.39 116.356 172.891 118.953 172.891 121.767C172.891 124.581 172.39 127.124 171.389 129.519C170.388 131.913 168.995 133.97 167.223 135.688C165.45 137.406 163.34 138.759 160.878 139.746C158.416 140.72 155.724 141.221 152.801 141.221C149.879 141.221 147.187 140.734 144.725 139.746C142.263 138.772 140.139 137.419 138.38 135.688C136.608 133.97 135.228 131.913 134.214 129.519C133.213 127.124 132.712 124.541 132.712 121.767ZM145.334 121.7C145.334 131.318 147.823 136.121 152.801 136.121C155.291 136.121 157.171 134.917 158.429 132.495C159.701 130.074 160.337 126.475 160.337 121.7C160.337 116.924 159.701 113.312 158.429 110.904C157.158 108.483 155.277 107.279 152.801 107.279C147.823 107.279 145.334 112.081 145.334 121.7Z" fill="white"/>
<path d="M191.411 91.4097V103.179H201.747V107.414H191.411V128.003C191.411 130.114 191.871 131.724 192.804 132.847C193.738 133.969 194.915 134.538 196.362 134.538C198.175 134.538 200.069 133.726 202.031 132.103L202.464 132.603C201.652 134.226 200.597 135.688 199.311 136.986C198.216 138.082 196.836 139.097 195.185 140.003C193.535 140.909 191.492 141.369 189.044 141.369C185.743 141.369 183.213 140.341 181.441 138.285C179.668 136.229 178.789 133.09 178.789 128.883V107.427H174.271V104.627C178.234 103.91 181.508 102.462 184.065 100.284C186.622 98.1061 188.597 95.157 189.99 91.4232H191.424L191.411 91.4097Z" fill="white"/>
<path d="M222.404 109.714C222.877 108.753 223.473 107.847 224.163 106.981C224.852 106.115 225.637 105.357 226.489 104.681C227.355 104.005 228.302 103.477 229.357 103.071C230.413 102.665 231.508 102.462 232.658 102.462C233.808 102.462 234.945 102.665 235.919 103.071C236.893 103.477 237.745 104.045 238.462 104.762C239.179 105.479 239.747 106.291 240.153 107.197C240.559 108.104 240.762 109.064 240.762 110.065C240.762 111.783 240.207 113.217 239.111 114.367C238.015 115.517 236.595 116.085 234.877 116.085C233.727 116.085 232.766 115.828 232.009 115.328C231.238 114.827 230.548 114.286 229.926 113.718C229.303 113.15 228.694 112.609 228.099 112.108C227.504 111.607 226.773 111.35 225.908 111.35C224.852 111.35 224 111.716 223.364 112.46C222.715 113.204 222.39 114.124 222.39 115.22V132.725C222.39 135.363 222.891 137.189 223.892 138.217C224.893 139.246 226.408 139.76 228.41 139.76V140.477H203.505V139.76C205.277 139.76 206.643 139.178 207.59 138.001C208.551 136.824 209.024 134.835 209.024 132.008V110.268C209.024 107.968 208.537 106.345 207.55 105.385C206.562 104.424 205.223 103.951 203.491 103.951V103.166H222.363V109.7L222.404 109.714Z" fill="white"/>
<path d="M280.886 126.367C279.926 129.14 278.614 131.602 276.936 133.753C276.219 134.66 275.38 135.566 274.42 136.486C273.459 137.392 272.364 138.19 271.119 138.894C269.874 139.584 268.494 140.152 266.993 140.585C265.491 141.018 263.8 141.234 261.933 141.234C259.201 141.234 256.698 140.747 254.398 139.76C252.098 138.786 250.11 137.433 248.405 135.701C246.701 133.983 245.388 131.927 244.455 129.532C243.521 127.138 243.061 124.541 243.061 121.713C243.061 118.886 243.521 116.302 244.455 113.934C245.388 111.567 246.687 109.524 248.365 107.806C250.042 106.088 252.031 104.749 254.358 103.788C256.671 102.828 259.228 102.354 262.001 102.354C264.774 102.354 267.304 102.828 269.604 103.788C271.904 104.749 273.879 106.061 275.556 107.738C277.234 109.416 278.532 111.378 279.466 113.623C280.399 115.869 280.859 118.318 280.859 120.942L255.954 120.874C256.576 124.459 257.997 127.287 260.229 129.343C262.447 131.399 265.194 132.427 268.44 132.427C270.402 132.427 272.107 132.103 273.541 131.453C274.974 130.804 276.192 130.074 277.207 129.262C278.357 128.355 279.331 127.327 280.142 126.177L280.859 126.394L280.886 126.367ZM255.629 116.112H268.616C268.237 112.96 267.493 110.647 266.398 109.186C265.302 107.725 263.841 106.994 262.014 106.994C259.999 106.994 258.457 107.779 257.388 109.362C256.306 110.945 255.724 113.19 255.629 116.112Z" fill="white"/>
<path d="M319.415 109.064C320.605 106.954 322.202 105.29 324.19 104.045C326.179 102.801 328.438 102.178 330.968 102.178C333.119 102.178 335.134 102.665 337.028 103.653C338.922 104.64 340.559 105.98 341.939 107.671C343.333 109.375 344.415 111.377 345.199 113.704C345.984 116.031 346.39 118.547 346.39 121.28C346.39 124.202 345.93 126.921 344.997 129.465C344.063 132.008 342.791 134.2 341.195 136.066C339.585 137.933 337.705 139.394 335.527 140.45C333.349 141.505 330.995 142.032 328.465 142.032C324.88 142.032 321.863 140.95 319.428 138.799V146.551C319.428 148.553 319.902 150.095 320.862 151.137C321.823 152.192 323.108 152.72 324.731 152.72V153.437H300.543V152.72C302.315 152.72 303.681 152.138 304.628 150.961C305.589 149.784 306.062 147.809 306.062 145.036V110.309C306.062 108.009 305.602 106.385 304.669 105.425C303.736 104.464 302.356 103.991 300.543 103.991V103.206H319.415V109.091V109.064ZM319.415 129.735C319.415 130.926 319.591 131.954 319.956 132.779C320.321 133.618 320.781 134.294 321.349 134.822C321.917 135.349 322.58 135.715 323.324 135.931C324.068 136.148 324.799 136.256 325.516 136.256C327.951 136.256 329.75 135.16 330.9 132.955C332.05 130.75 332.618 127.544 332.618 123.336C332.618 114.678 330.291 110.349 325.651 110.349C323.784 110.349 322.283 111.012 321.133 112.324C319.983 113.637 319.415 115.395 319.415 117.6V129.722V129.735Z" fill="white"/>
<path d="M367.21 109.714C367.683 108.753 368.279 107.847 368.969 106.981C369.659 106.115 370.443 105.357 371.295 104.681C372.161 104.005 373.108 103.477 374.163 103.071C375.219 102.665 376.314 102.462 377.464 102.462C378.614 102.462 379.751 102.665 380.725 103.071C381.699 103.477 382.551 104.045 383.268 104.762C383.985 105.479 384.553 106.291 384.959 107.197C385.365 108.104 385.568 109.064 385.568 110.065C385.568 111.783 385.013 113.217 383.917 114.367C382.822 115.517 381.401 116.085 379.683 116.085C378.533 116.085 377.573 115.828 376.815 115.328C376.044 114.827 375.354 114.286 374.732 113.718C374.109 113.15 373.501 112.609 372.905 112.108C372.31 111.607 371.58 111.35 370.714 111.35C369.659 111.35 368.806 111.716 368.17 112.46C367.521 113.204 367.196 114.124 367.196 115.22V132.725C367.196 135.363 367.697 137.189 368.698 138.217C369.699 139.246 371.214 139.76 373.216 139.76V140.477H348.311V139.76C350.083 139.76 351.45 139.178 352.397 138.001C353.357 136.824 353.831 134.835 353.831 132.008V110.268C353.831 107.968 353.344 106.345 352.356 105.385C351.368 104.424 350.029 103.951 348.297 103.951V103.166H367.169V109.7L367.21 109.714Z" fill="white"/>
<path d="M385.933 103.18H404.805V132.022C404.805 134.849 405.292 136.838 406.28 138.015C407.254 139.192 408.661 139.773 410.473 139.773V140.49H385.933V139.773C387.705 139.773 389.072 139.192 390.019 138.015C390.979 136.838 391.453 134.849 391.453 132.022V110.282C391.453 107.982 391.033 106.359 390.194 105.398C389.356 104.438 387.935 103.964 385.92 103.964V103.18H385.933ZM390.167 93.4257C390.167 92.4246 390.384 91.4776 390.817 90.5848C391.25 89.7054 391.818 88.9208 392.535 88.2579C393.252 87.595 394.104 87.0674 395.078 86.6751C396.052 86.2963 397.094 86.1069 398.203 86.1069C399.313 86.1069 400.341 86.2963 401.328 86.6751C402.302 87.0539 403.155 87.5815 403.872 88.2579C404.589 88.9343 405.157 89.7054 405.59 90.5848C406.022 91.4641 406.239 92.4111 406.239 93.4257C406.239 94.4403 406.022 95.3738 405.59 96.2666C405.157 97.146 404.589 97.9306 403.872 98.5935C403.155 99.2699 402.302 99.784 401.328 100.176C400.341 100.555 399.313 100.744 398.203 100.744C397.094 100.744 396.066 100.555 395.078 100.176C394.091 99.7975 393.252 99.2699 392.535 98.5935C391.818 97.9306 391.236 97.146 390.817 96.2666C390.384 95.3873 390.167 94.4403 390.167 93.4257Z" fill="white"/>
<path d="M411.975 121.767C411.975 118.94 412.475 116.356 413.477 113.989C414.478 111.621 415.871 109.578 417.643 107.847C419.415 106.129 421.526 104.776 423.988 103.788C426.45 102.814 429.142 102.314 432.064 102.314C434.986 102.314 437.678 102.801 440.141 103.788C442.603 104.776 444.727 106.115 446.485 107.847C448.258 109.565 449.637 111.608 450.652 113.989C451.653 116.356 452.154 118.953 452.154 121.767C452.154 124.581 451.653 127.124 450.652 129.519C449.651 131.913 448.258 133.97 446.485 135.688C444.713 137.406 442.603 138.759 440.141 139.746C437.678 140.72 434.986 141.221 432.064 141.221C429.142 141.221 426.45 140.734 423.988 139.746C421.526 138.772 419.402 137.419 417.643 135.688C415.871 133.97 414.491 131.913 413.477 129.519C412.475 127.124 411.975 124.541 411.975 121.767ZM424.597 121.7C424.597 131.318 427.086 136.121 432.064 136.121C434.553 136.121 436.434 134.917 437.692 132.495C438.964 130.074 439.599 126.475 439.599 121.7C439.599 116.924 438.964 113.312 437.692 110.904C436.42 108.483 434.54 107.279 432.064 107.279C427.086 107.279 424.597 112.081 424.597 121.7Z" fill="white"/>
<path d="M472.974 109.714C473.447 108.753 474.042 107.847 474.732 106.981C475.422 106.115 476.207 105.357 477.059 104.681C477.925 104.005 478.872 103.477 479.927 103.071C480.982 102.665 482.078 102.462 483.228 102.462C484.378 102.462 485.514 102.665 486.488 103.071C487.462 103.477 488.315 104.045 489.032 104.762C489.749 105.479 490.317 106.291 490.723 107.197C491.129 108.104 491.331 109.064 491.331 110.065C491.331 111.783 490.777 113.217 489.681 114.367C488.585 115.517 487.165 116.085 485.447 116.085C484.297 116.085 483.336 115.828 482.579 115.328C481.808 114.827 481.118 114.286 480.495 113.718C479.873 113.15 479.264 112.609 478.669 112.108C478.074 111.607 477.343 111.35 476.477 111.35C475.422 111.35 474.57 111.716 473.934 112.46C473.285 113.204 472.96 114.124 472.96 115.22V132.725C472.96 135.363 473.461 137.189 474.462 138.217C475.463 139.246 476.978 139.76 478.98 139.76V140.477H454.075V139.76C455.847 139.76 457.213 139.178 458.16 138.001C459.121 136.824 459.594 134.835 459.594 132.008V110.268C459.594 107.968 459.107 106.345 458.12 105.385C457.132 104.424 455.793 103.951 454.061 103.951V103.166H472.933V109.7L472.974 109.714Z" fill="white"/>
<path d="M491.696 103.18H510.568V132.022C510.568 134.849 511.055 136.838 512.043 138.015C513.017 139.192 514.424 139.773 516.237 139.773V140.49H491.696V139.773C493.469 139.773 494.835 139.192 495.782 138.015C496.743 136.838 497.216 134.849 497.216 132.022V110.282C497.216 107.982 496.797 106.359 495.958 105.398C495.119 104.438 493.699 103.964 491.683 103.964V103.18H491.696ZM495.931 93.4257C495.931 92.4246 496.147 91.4776 496.58 90.5848C497.013 89.7054 497.581 88.9208 498.298 88.2579C499.015 87.595 499.868 87.0674 500.842 86.6751C501.816 86.2963 502.857 86.1069 503.967 86.1069C505.076 86.1069 506.104 86.2963 507.092 86.6751C508.066 87.0539 508.918 87.5815 509.635 88.2579C510.352 88.9343 510.92 89.7054 511.353 90.5848C511.786 91.4641 512.002 92.4111 512.002 93.4257C512.002 94.4403 511.786 95.3738 511.353 96.2666C510.92 97.146 510.352 97.9306 509.635 98.5935C508.918 99.2699 508.066 99.784 507.092 100.176C506.104 100.555 505.076 100.744 503.967 100.744C502.857 100.744 501.829 100.555 500.842 100.176C499.854 99.7975 499.015 99.2699 498.298 98.5935C497.581 97.9306 497 97.146 496.58 96.2666C496.147 95.3873 495.931 94.4403 495.931 93.4257Z" fill="white"/>
<path d="M532.39 91.4097V103.179H542.725V107.414H532.39V128.003C532.39 130.114 532.85 131.724 533.783 132.847C534.716 133.969 535.893 134.538 537.341 134.538C539.154 134.538 541.048 133.726 543.009 132.103L543.442 132.603C542.63 134.226 541.575 135.688 540.29 136.986C539.194 138.082 537.814 139.097 536.164 140.003C534.513 140.909 532.471 141.369 530.022 141.369C526.721 141.369 524.191 140.341 522.419 138.285C520.647 136.229 519.768 133.09 519.768 128.883V107.427H515.249V104.627C519.213 103.91 522.487 102.462 525.044 100.284C527.601 98.1061 529.576 95.157 530.969 91.4232H532.403L532.39 91.4097Z" fill="white"/>
<path d="M584.27 126.367C583.31 129.14 581.997 131.602 580.32 133.753C579.603 134.66 578.764 135.566 577.804 136.486C576.843 137.392 575.747 138.19 574.503 138.894C573.258 139.584 571.878 140.152 570.377 140.585C568.875 141.018 567.184 141.234 565.317 141.234C562.584 141.234 560.082 140.747 557.782 139.76C555.482 138.786 553.493 137.433 551.789 135.701C550.084 133.983 548.772 131.927 547.839 129.532C546.905 127.138 546.445 124.541 546.445 121.713C546.445 118.886 546.905 116.302 547.839 113.934C548.772 111.567 550.071 109.524 551.748 107.806C553.426 106.088 555.414 104.749 557.741 103.788C560.055 102.828 562.611 102.354 565.385 102.354C568.158 102.354 570.688 102.828 572.988 103.788C575.287 104.749 577.262 106.061 578.94 107.738C580.617 109.416 581.916 111.378 582.85 113.623C583.783 115.869 584.243 118.318 584.243 120.942L559.338 120.874C559.96 124.459 561.38 127.287 563.612 129.343C565.831 131.399 568.577 132.427 571.824 132.427C573.786 132.427 575.49 132.103 576.924 131.453C578.358 130.804 579.576 130.074 580.59 129.262C581.74 128.355 582.714 127.327 583.526 126.177L584.243 126.394L584.27 126.367ZM559.013 116.112H572C571.621 112.96 570.877 110.647 569.781 109.186C568.686 107.725 567.225 106.994 565.398 106.994C563.383 106.994 561.84 107.779 560.772 109.362C559.689 110.945 559.108 113.19 559.013 116.112Z" fill="white"/>
<path d="M574.286 87.5811L565.533 97.8354H561.015L567.333 87.5811H574.286Z" fill="white"/>
</svg>
