<svg width="626" height="578" viewBox="0 0 626 578" fill="none" xmlns="http://www.w3.org/2000/svg">
<path d="M137.826 -7.75775C143.271 -10.8352 151.098 -13.5708 161.307 -16.3063C171.516 -19.0418 181.726 -20.4096 191.935 -20.4096C206.398 -20.4096 219.16 -17.6741 230.22 -12.203C241.28 -6.73192 250.979 0.277893 259.146 9.16839C267.314 17.8879 273.439 28.1462 277.693 39.6012C281.947 51.0563 283.989 63.1953 283.989 75.8471C283.989 97.5604 277.863 120.812 265.442 145.261C253.02 169.71 236.856 195.527 216.777 222.711C196.529 249.896 173.728 278.448 148.205 308.368C122.682 338.288 96.6482 369.233 70.104 401.376C82.6955 394.195 101.753 387.698 127.446 381.885C152.969 376.072 180.194 373.337 209.121 373.337H334.525V199.288C334.525 180.481 333.674 165.094 331.802 152.955C329.93 140.816 327.378 131.242 324.145 123.89C320.912 116.709 316.999 111.409 312.404 107.99C307.81 104.741 302.876 102.177 297.431 100.296V98.4153C318.53 94.8249 339.289 89.6958 359.707 83.0279C380.126 76.36 399.354 67.9824 417.39 58.0661C435.427 48.1498 451.761 36.3528 466.565 22.6751C481.368 8.99742 493.109 -6.56095 502.297 -24H511.316V373.166H626V442.067H511.316V512.849C511.316 534.562 512.847 552.856 515.91 567.731C518.973 582.605 523.737 594.402 530.373 603.635C537.009 612.696 546.197 619.193 557.938 623.125C569.679 627.058 583.972 628.938 600.817 628.938V638H236.175V628.938C255.403 628.938 271.397 627.058 283.989 623.467C296.58 619.877 306.619 613.722 314.276 604.832C321.763 596.112 327.038 584.144 330.101 568.928C333.163 553.882 334.695 535.075 334.695 512.678V441.896H173.218C147.354 441.896 125.234 442.58 106.858 444.119C88.4808 445.658 72.9965 447.367 60.405 449.59C47.8136 451.642 37.6042 454.206 29.7771 457.284C21.95 460.361 15.6542 463.609 10.8899 467.2L0 458.138C20.4186 424.286 41.1775 390.776 62.2768 357.436C83.376 324.268 102.433 291.613 119.619 259.47C136.805 227.498 150.757 196.04 161.647 165.094C172.537 134.319 177.812 104.399 177.812 75.3342C177.812 32.4205 164.54 4.55217 138.166 -8.09969L137.826 -7.75775Z" fill="white" fill-opacity="0.15"/>
</svg>
