<svg width="352" height="154" viewBox="0 0 352 154" fill="none" xmlns="http://www.w3.org/2000/svg">
<path d="M0 0.0150146H35.6194V0.835096C33.7626 0.835096 32.1998 1.02077 30.9465 1.36119C29.6931 1.71707 28.6874 2.30505 27.9447 3.12513C27.2019 3.94522 26.6759 5.02834 26.3509 6.37451C26.026 7.72069 25.8558 9.37632 25.8558 11.3414V46.2181C25.8558 48.1832 26.026 49.8388 26.3509 51.185C26.6759 52.5312 27.2174 53.5988 27.9447 54.4344C28.6874 55.2545 29.6777 55.827 30.9465 56.1519C32.1998 56.4768 33.7626 56.6471 35.6194 56.6471V57.4671H0V56.6471C1.85679 56.6471 3.41958 56.4768 4.67292 56.1519C5.92625 55.827 6.93201 55.2545 7.67472 54.4344C8.41744 53.6143 8.94353 52.5312 9.26847 51.185C9.5934 49.8388 9.76361 48.1832 9.76361 46.2181V11.3414C9.76361 9.37632 9.5934 7.72069 9.26847 6.37451C8.94353 5.02834 8.40197 3.96069 7.67472 3.12513C6.93201 2.30505 5.94172 1.71707 4.67292 1.36119C3.41958 1.0053 1.85679 0.835096 0 0.835096V0.0150146Z" fill="white"/>
<path d="M101.365 21.1827C102.789 18.7224 104.708 16.7419 107.106 15.2255C109.52 13.7246 112.135 12.9664 114.982 12.9664C116.792 12.9664 118.51 13.2913 120.15 13.9567C121.79 14.622 123.245 15.6278 124.498 16.9894C125.751 18.3511 126.757 20.0531 127.5 22.0801C128.242 24.1071 128.614 26.49 128.614 29.2133V47.7657C128.614 50.9996 129.171 53.2742 130.3 54.6203C131.414 55.9665 133.024 56.6319 135.097 56.6319V57.452H109.411V56.6319C110.556 56.6319 111.5 56.1831 112.243 55.2702C112.986 54.3728 113.357 53.1194 113.357 51.5412V29.4609C113.357 27.7124 112.924 26.2734 112.042 25.1593C111.16 24.0452 109.969 23.4727 108.437 23.4727C106.905 23.4727 105.559 24.0762 104.584 25.2831C103.594 26.49 103.098 28.0528 103.098 29.956V52.0363C103.098 55.1 104.445 56.6319 107.121 56.6319V57.452H83.8961V56.6319C85.0411 56.6319 85.985 56.1831 86.7277 55.2702C87.4704 54.3728 87.8418 53.1194 87.8418 51.5412V29.4609C87.8418 27.7124 87.4085 26.2734 86.5266 25.1593C85.6446 24.0452 84.4532 23.4727 82.9213 23.4727C81.3895 23.4727 80.0433 24.0762 79.0685 25.2831C78.0782 26.49 77.5985 28.0528 77.5985 29.956V51.8661C77.5985 53.4599 77.9389 54.6513 78.6197 55.4404C79.3006 56.2296 80.2754 56.6319 81.5287 56.6319V57.452H55.9979V56.6319C58.0249 56.6319 59.5877 55.9665 60.6708 54.6203C61.7694 53.2742 62.311 50.9996 62.311 47.7657V22.9157C62.311 20.2852 61.7075 18.4285 60.5006 17.3299C59.2937 16.2313 57.7928 15.6897 55.9824 15.6897V14.7922H77.5676V20.2852C78.8209 18.0416 80.5075 16.2622 82.6118 14.947C84.7162 13.6317 87.0217 12.9819 89.5438 12.9819C92.066 12.9819 94.4334 13.6782 96.5223 15.0708C98.5957 16.4634 100.22 18.5058 101.365 21.1827Z" fill="white"/>
<path d="M176.782 29.2285V48.9259C176.782 50.1793 177.092 51.1695 177.726 51.8813C178.36 52.5931 179.103 52.949 179.985 52.949C180.867 52.949 181.656 52.624 182.368 51.9587L182.863 52.5312C182.151 53.6298 181.3 54.6046 180.325 55.4866C179.397 56.2602 178.267 56.9411 176.968 57.5445C175.668 58.148 174.09 58.442 172.295 58.442C169.835 58.442 167.699 57.8076 165.889 56.5542C164.079 55.3009 162.964 53.4286 162.531 50.9684C161.278 53.1656 159.56 54.9295 157.41 56.3067C155.243 57.6683 152.69 58.3646 149.735 58.3646C147.924 58.3646 146.253 58.1015 144.691 57.5909C143.128 57.0803 141.782 56.3376 140.621 55.3783C139.476 54.4189 138.563 53.2584 137.913 51.8968C137.263 50.5351 136.923 49.0033 136.923 47.3012C136.923 44.9493 137.542 42.9997 138.764 41.4678C140.002 39.936 141.534 38.6362 143.406 37.5686C145.263 36.5009 147.259 35.5725 149.394 34.7834C151.53 33.9942 153.526 33.1587 155.383 32.2767C157.239 31.4102 158.787 30.4045 160.025 29.2749C161.262 28.1608 161.866 26.7218 161.866 24.9734C161.866 23.3332 161.309 21.9715 160.179 20.9039C159.05 19.8362 157.595 19.3102 155.785 19.3102C154.532 19.3102 153.464 19.4958 152.582 19.8827C151.7 20.2695 151.267 20.7027 151.267 21.1979C151.267 21.4145 151.375 21.6157 151.592 21.8168C151.808 22.0025 152.071 22.2346 152.365 22.5131C152.659 22.7916 152.922 23.163 153.139 23.6581C153.356 24.1533 153.464 24.865 153.464 25.7934C153.464 27.6038 152.783 29.0583 151.406 30.1878C150.044 31.3174 148.389 31.8744 146.485 31.8744C144.412 31.8744 142.633 31.2245 141.147 29.9403C139.677 28.656 138.935 27.0622 138.935 25.1436C138.935 23.7819 139.368 22.4357 140.25 21.1205C141.132 19.8053 142.37 18.6293 143.979 17.5926C145.588 16.5559 147.553 15.7204 149.843 15.086C152.133 14.4516 154.733 14.1421 157.642 14.1421C163.769 14.1421 168.488 15.5192 171.8 18.2889C175.111 21.0586 176.767 24.7103 176.767 29.244L176.782 29.2285ZM162.33 41.9475V34.8143C161.448 35.6963 160.411 36.4081 159.204 36.9496C157.998 37.4912 156.853 38.0792 155.754 38.7136C154.655 39.348 153.727 40.0752 152.969 40.9263C152.195 41.7773 151.824 42.9378 151.824 44.4077C151.824 45.8777 152.226 47.0382 153.015 47.8583C153.804 48.6784 154.918 49.0961 156.342 49.0961C158.152 49.0961 159.591 48.4308 160.69 47.0846C161.788 45.7384 162.33 44.0364 162.33 41.9475Z" fill="white"/>
<path d="M210.018 0.0154732H231.603V49.5917C231.603 51.8818 232.021 53.6457 232.841 54.8371C233.661 56.0441 235.27 56.6475 237.684 56.6475V57.4676H216.347V51.3092C214.985 53.7231 213.159 55.6263 210.885 57.0498C208.61 58.4734 206.026 59.1851 203.133 59.1851C200.672 59.1851 198.351 58.6281 196.2 57.4985C194.034 56.3845 192.162 54.8526 190.584 52.903C188.99 50.9688 187.752 48.6633 186.855 46.0019C185.957 43.356 185.493 40.4625 185.493 37.3369C185.493 33.9483 186.019 30.8072 187.087 27.9447C188.154 25.0821 189.609 22.5754 191.435 20.4401C193.261 18.3048 195.442 16.6337 197.964 15.4268C200.487 14.2199 203.163 13.6164 206.011 13.6164C210.111 13.6164 213.561 14.8543 216.347 17.3146V8.04608C216.347 5.41563 215.805 3.55884 214.706 2.46024C213.608 1.36164 212.045 0.820081 210.034 0.820081V0L210.018 0.0154732ZM216.331 41.5456V27.6816C216.331 26.2581 216.13 25.0821 215.712 24.1537C215.294 23.2253 214.768 22.4517 214.119 21.8482C213.469 21.2448 212.71 20.827 211.859 20.5794C211.008 20.3318 210.173 20.208 209.353 20.208C206.568 20.208 204.51 21.4614 203.194 23.9835C201.879 26.5057 201.229 30.1728 201.229 34.985C201.229 44.8879 203.875 49.8393 209.183 49.8393C211.318 49.8393 213.035 49.0811 214.351 47.5802C215.666 46.0793 216.316 44.0678 216.316 41.5456H216.331Z" fill="white"/>
<path d="M282.248 41.2979C281.149 44.4699 279.648 47.286 277.729 49.7463C276.909 50.783 275.95 51.8197 274.851 52.8719C273.753 53.9086 272.499 54.8215 271.076 55.6261C269.652 56.4152 268.074 57.0651 266.357 57.5602C264.639 58.0554 262.705 58.303 260.57 58.303C257.444 58.303 254.581 57.7459 251.951 56.6164C249.321 55.5023 247.046 53.955 245.096 51.9744C243.147 50.0093 241.646 47.6574 240.578 44.9186C239.511 42.1798 238.984 39.209 238.984 35.9751C238.984 32.7412 239.511 29.7858 240.578 27.078C241.646 24.3702 243.131 22.0337 245.05 20.0686C246.969 18.1035 249.243 16.5716 251.905 15.473C254.551 14.3744 257.475 13.8329 260.647 13.8329C263.819 13.8329 266.712 14.3744 269.343 15.473C271.973 16.5716 274.232 18.0726 276.151 19.9912C278.07 21.9099 279.555 24.1535 280.623 26.7221C281.691 29.2906 282.217 32.0913 282.217 35.0931L253.73 35.0157C254.442 39.1161 256.067 42.3501 258.62 44.702C261.158 47.0539 264.299 48.2299 268.012 48.2299C270.256 48.2299 272.205 47.8585 273.846 47.1158C275.486 46.3731 276.878 45.5375 278.039 44.6091C279.354 43.5724 280.468 42.3965 281.397 41.0813L282.217 41.3288L282.248 41.2979ZM253.359 29.5692H268.213C267.78 25.9639 266.929 23.318 265.676 21.6469C264.422 19.9758 262.751 19.1402 260.662 19.1402C258.357 19.1402 256.593 20.0377 255.371 21.848C254.133 23.6584 253.467 26.2269 253.359 29.5692Z" fill="white"/>
<path d="M0 79.9033H27.9911V80.7234C25.701 80.7234 24.1073 81.4197 23.2253 82.8123C22.3434 84.2049 22.4362 86.1081 23.4729 88.5219L29.5384 102.726L36.0991 87.5471C36.8727 85.7367 36.9656 84.1585 36.3931 82.7813C35.8205 81.4197 34.4898 80.7234 32.4164 80.7234V79.9033H50.0559V80.7234C48.3539 80.7234 46.9303 81.2185 45.7544 82.1934C44.5784 83.1836 43.356 85.0714 42.1027 87.8566L24.5406 127.329C23.6122 129.464 22.6683 131.259 21.7089 132.698C20.7496 134.152 19.7439 135.344 18.6762 136.272C17.6086 137.201 16.4945 137.866 15.3185 138.284C14.1426 138.702 12.8428 138.903 11.4193 138.903C9.7172 138.903 8.20082 138.64 6.87012 138.129C5.52395 137.603 4.37894 136.922 3.4196 136.071C2.46025 135.22 1.71753 134.23 1.20691 133.069C0.68082 131.924 0.433249 130.717 0.433249 129.464C0.433249 127.499 1.02123 125.921 2.1972 124.745C3.37316 123.569 4.88954 122.981 6.74633 122.981C8.60312 122.981 9.9493 123.507 10.9396 124.575C11.9299 125.642 12.4095 126.942 12.4095 128.474C12.4095 129.294 12.2857 129.944 12.0382 130.408C11.7906 130.872 11.5121 131.274 11.2181 131.599C10.9241 131.924 10.6456 132.218 10.398 132.466C10.1504 132.713 10.0266 132.977 10.0266 133.24C10.0266 133.564 10.2278 133.858 10.6456 134.106C11.0634 134.354 11.5895 134.477 12.2393 134.477C13.4927 134.477 14.6686 133.858 15.7672 132.636C16.8658 131.398 18.1501 129.093 19.6201 125.704L21.9256 120.288L7.07128 87.7947C6.4214 86.3711 5.83342 85.1952 5.30733 84.2668C4.78124 83.3384 4.28608 82.6111 3.79094 82.085C3.29579 81.559 2.75423 81.2185 2.15078 81.0174C1.54732 80.8317 0.83557 80.7234 0.0154883 80.7234V79.9033H0Z" fill="white"/>
<path d="M50.8759 101.164C50.8759 97.9301 51.4484 94.9747 52.5934 92.2669C53.7384 89.5591 55.3321 87.2226 57.3591 85.2421C59.3861 83.277 61.8 81.7296 64.6161 80.6001C67.4322 79.486 70.5114 78.9135 73.8536 78.9135C77.1958 78.9135 80.275 79.4705 83.0911 80.6001C85.9072 81.7296 88.3365 83.2615 90.3481 85.2421C92.3751 87.2072 93.9534 89.5436 95.1138 92.2669C96.2589 94.9747 96.8314 97.9456 96.8314 101.164C96.8314 104.382 96.2589 107.291 95.1138 110.03C93.9688 112.769 92.3751 115.121 90.3481 117.086C88.3211 119.051 85.9072 120.598 83.0911 121.728C80.275 122.842 77.1958 123.415 73.8536 123.415C70.5114 123.415 67.4322 122.858 64.6161 121.728C61.8 120.614 59.3707 119.067 57.3591 117.086C55.3321 115.121 53.7539 112.769 52.5934 110.03C51.4484 107.291 50.8759 104.336 50.8759 101.164ZM65.3124 101.087C65.3124 112.088 68.1594 117.581 73.8536 117.581C76.7007 117.581 78.8515 116.204 80.2905 113.434C81.7449 110.665 82.4722 106.549 82.4722 101.087C82.4722 95.6246 81.7449 91.4933 80.2905 88.739C78.836 85.9693 76.6852 84.5922 73.8536 84.5922C68.1594 84.5922 65.3124 90.0852 65.3124 101.087Z" fill="white"/>
<path d="M131.306 116.173C129.991 118.695 128.149 120.691 125.767 122.161C123.384 123.631 120.8 124.374 118.014 124.374C116.204 124.374 114.471 124.049 112.8 123.383C111.129 122.733 109.659 121.712 108.375 120.351C107.09 118.989 106.069 117.287 105.295 115.26C104.522 113.233 104.15 110.85 104.15 108.127V89.5742C104.15 86.3403 103.593 84.0658 102.464 82.7196C101.334 81.3734 99.7406 80.7081 97.6672 80.7081V79.888H119.423V107.879C119.423 109.906 119.949 111.546 120.985 112.8C122.022 114.053 123.415 114.687 125.179 114.687C126.943 114.687 128.459 114.006 129.604 112.629C130.749 111.268 131.321 109.504 131.321 107.384V87.114C131.321 84.7002 130.95 83.0445 130.207 82.1007C129.465 81.1723 128.366 80.7081 126.881 80.7081V79.888H146.578V114.517C146.578 117.148 147.089 119.004 148.094 120.103C149.1 121.202 150.709 121.743 152.891 121.743V122.563H131.306V116.157V116.173Z" fill="white"/>
<path d="M173.996 87.3613C174.538 86.2627 175.219 85.226 176.008 84.2357C176.797 83.2454 177.694 82.3789 178.669 81.6052C179.659 80.8316 180.742 80.2281 181.949 79.7639C183.156 79.2997 184.41 79.0676 185.725 79.0676C187.04 79.0676 188.34 79.2997 189.454 79.7639C190.568 80.2281 191.543 80.878 192.363 81.6981C193.183 82.5182 193.833 83.4466 194.297 84.4833C194.761 85.52 194.993 86.6186 194.993 87.7636C194.993 89.7287 194.359 91.3688 193.106 92.6841C191.852 93.9993 190.228 94.6492 188.262 94.6492C186.947 94.6492 185.849 94.3552 184.982 93.7827C184.1 93.2102 183.311 92.5912 182.599 91.9414C181.887 91.2915 181.191 90.6726 180.51 90.1C179.83 89.5275 178.994 89.2335 178.004 89.2335C176.797 89.2335 175.822 89.6513 175.095 90.5023C174.352 91.3534 173.981 92.4056 173.981 93.6589V113.681C173.981 116.699 174.553 118.787 175.698 119.963C176.843 121.139 178.576 121.727 180.866 121.727V122.547H152.38V121.727C154.407 121.727 155.97 121.062 157.053 119.716C158.152 118.37 158.693 116.095 158.693 112.861V88.0266C158.693 85.3962 158.136 83.5394 157.007 82.4408C155.877 81.3422 154.345 80.8006 152.365 80.8006V79.9032H173.95V87.3768L173.996 87.3613Z" fill="white"/>
<path d="M218.049 99.6012C219.41 97.5278 221.236 95.8258 223.511 94.5105C225.785 93.1953 228.308 92.5454 231.108 92.5454C233.63 92.5454 235.967 93.087 238.133 94.1856C240.299 95.2842 242.187 96.7542 243.796 98.6109C245.405 100.468 246.674 102.649 247.572 105.141C248.469 107.632 248.933 110.293 248.933 113.14C248.933 116.637 248.314 119.871 247.092 122.827C245.854 125.782 244.183 128.32 242.048 130.455C239.913 132.59 237.406 134.261 234.543 135.468C231.681 136.675 228.617 137.279 225.399 137.279C223.372 137.279 221.608 137.077 220.107 136.66C218.606 136.242 217.229 135.809 216.006 135.344C214.768 134.88 213.639 134.447 212.602 134.029C211.566 133.611 210.529 133.41 209.477 133.41C208.595 133.41 207.682 133.627 206.722 134.06C205.763 134.493 204.742 135.267 203.643 136.366H202.823V87.037C202.823 84.4065 202.282 82.5497 201.183 81.4511C200.084 80.3525 198.537 79.811 196.51 79.811V78.9135H218.095V99.6012H218.049ZM218.049 125.287C218.049 127.36 218.652 128.923 219.859 129.96C221.066 130.996 222.598 131.523 224.455 131.523C227.58 131.523 229.808 130.254 231.139 127.701C232.485 125.163 233.151 121.31 233.151 116.173C233.151 111.516 232.485 107.972 231.139 105.543C229.793 103.114 227.704 101.891 224.857 101.891C222.892 101.891 221.252 102.526 219.968 103.779C218.683 105.032 218.033 106.905 218.033 109.365V125.287H218.049Z" fill="white"/>
<path d="M294.208 108.127V127.824C294.208 129.078 294.517 130.068 295.152 130.78C295.786 131.491 296.529 131.847 297.411 131.847C298.293 131.847 299.082 131.522 299.794 130.857L300.289 131.429C299.577 132.528 298.726 133.503 297.751 134.385C296.823 135.158 295.693 135.839 294.394 136.443C293.094 137.046 291.516 137.34 289.721 137.34C287.26 137.34 285.125 136.706 283.315 135.452C281.504 134.199 280.39 132.327 279.957 129.867C278.704 132.064 276.986 133.828 274.835 135.205C272.669 136.567 270.116 137.263 267.161 137.263C265.35 137.263 263.679 137 262.116 136.489C260.554 135.979 259.207 135.236 258.047 134.277C256.902 133.317 255.989 132.157 255.339 130.795C254.689 129.433 254.349 127.902 254.349 126.199C254.349 123.848 254.968 121.898 256.19 120.366C257.428 118.834 258.96 117.534 260.832 116.467C262.689 115.399 264.685 114.471 266.82 113.682C268.956 112.893 270.952 112.057 272.808 111.175C274.665 110.308 276.213 109.303 277.45 108.173C278.688 107.059 279.292 105.62 279.292 103.872C279.292 102.231 278.735 100.87 277.605 99.8021C276.476 98.7345 275.021 98.2084 273.211 98.2084C271.957 98.2084 270.89 98.3941 270.008 98.7809C269.126 99.1677 268.693 99.601 268.693 100.096C268.693 100.313 268.801 100.514 269.017 100.715C269.234 100.901 269.497 101.133 269.791 101.411C270.085 101.69 270.348 102.061 270.565 102.556C270.781 103.052 270.89 103.763 270.89 104.692C270.89 106.502 270.209 107.957 268.832 109.086C267.47 110.216 265.815 110.773 263.911 110.773C261.838 110.773 260.058 110.123 258.573 108.839C257.103 107.554 256.36 105.96 256.36 104.042C256.36 102.68 256.794 101.334 257.676 100.019C258.558 98.7035 259.795 97.5276 261.405 96.4909C263.014 95.4542 264.979 94.6186 267.269 93.9842C269.559 93.3498 272.159 93.0403 275.068 93.0403C281.195 93.0403 285.914 94.4175 289.226 97.1872C292.537 99.9569 294.192 103.609 294.192 108.142L294.208 108.127ZM279.756 120.846V113.713C278.874 114.595 277.837 115.306 276.63 115.848C275.423 116.389 274.278 116.977 273.18 117.612C272.081 118.246 271.153 118.973 270.395 119.825C269.621 120.676 269.25 121.836 269.25 123.306C269.25 124.776 269.652 125.936 270.441 126.757C271.23 127.577 272.344 127.994 273.768 127.994C275.578 127.994 277.017 127.329 278.116 125.983C279.214 124.637 279.756 122.935 279.756 120.846Z" fill="white"/>
<path d="M303.152 106.41C303.152 104.383 303.647 102.541 304.622 100.87C305.612 99.1991 306.974 97.7601 308.722 96.5687C310.471 95.3618 312.544 94.4179 314.958 93.7371C317.372 93.0563 319.987 92.7159 322.834 92.7159C326.284 92.7159 329.348 93.211 332.025 94.1858C331.963 93.0872 332.164 92.035 332.597 91.0293C333.031 90.0235 333.665 89.1261 334.485 88.3679C335.305 87.5942 336.296 86.9908 337.487 86.5266C338.663 86.0624 339.963 85.8303 341.386 85.8303C342.81 85.8303 344.14 86.0624 345.363 86.5266C346.601 86.9908 347.653 87.6097 348.566 88.3679C349.463 89.1415 350.175 90.0545 350.701 91.1221C351.227 92.1898 351.475 93.3038 351.475 94.4489C351.475 96.1509 350.949 97.5126 349.912 98.5493C348.875 99.586 347.56 100.112 345.966 100.112C344.373 100.112 343.243 99.6633 342.392 98.7504C341.541 97.853 341.123 96.7698 341.123 95.501C341.123 94.5107 341.293 93.8454 341.649 93.4895C342.005 93.1336 342.175 92.6849 342.175 92.1279C342.175 91.0293 341.324 90.4877 339.638 90.4877C337.951 90.4877 336.682 91.0447 336.032 92.1743C335.383 93.3038 335.352 94.5726 335.955 95.9962C338.028 97.2495 339.653 98.7659 340.798 100.545C341.943 102.325 342.516 104.305 342.516 106.503C342.516 108.7 342.021 110.649 341.046 112.367C340.055 114.084 338.725 115.554 337.023 116.761C335.321 117.968 333.325 118.897 331.035 119.546C328.745 120.196 326.269 120.537 323.654 120.537C322.447 120.537 321.225 120.475 319.956 120.336C318.702 120.196 317.434 119.995 316.18 119.717C314.865 119.717 313.89 119.964 313.271 120.459C312.637 120.955 312.327 121.527 312.327 122.177C312.327 122.78 312.575 123.275 313.07 123.662C313.565 124.049 314.385 124.359 315.53 124.606C316.675 124.854 318.192 125.024 320.08 125.132C321.967 125.241 324.273 125.302 327.012 125.302C333.077 125.302 337.812 126.215 341.216 128.057C344.605 129.898 346.307 132.838 346.307 136.876C346.307 139.29 345.672 141.487 344.419 143.484C343.166 145.48 341.402 147.197 339.127 148.621C336.853 150.044 334.114 151.143 330.926 151.901C327.723 152.659 324.18 153.046 320.296 153.046C317.511 153.046 314.896 152.845 312.451 152.427C310.022 152.009 307.902 151.406 306.138 150.586C304.359 149.766 302.966 148.775 301.945 147.63C300.939 146.485 300.429 145.17 300.429 143.685C300.429 141.611 301.403 139.925 303.338 138.64C305.272 137.356 307.763 136.49 310.765 136.056C308.134 135.778 306.061 134.834 304.529 133.225C302.997 131.616 302.223 129.712 302.223 127.515C302.223 126.37 302.44 125.256 302.873 124.188C303.307 123.121 303.895 122.161 304.637 121.31C305.38 120.459 306.262 119.732 307.299 119.129C308.335 118.525 309.434 118.138 310.579 117.984C308.165 116.668 306.324 115.028 305.04 113.063C303.755 111.098 303.105 108.87 303.105 106.41H303.152ZM309.31 142.106C309.31 143.36 310.3 144.366 312.312 145.108C314.308 145.851 317.031 146.222 320.482 146.222C324.907 146.222 328.28 145.696 330.57 144.66C332.86 143.623 334.021 142.478 334.021 141.209C334.021 139.94 332.969 139.167 330.864 138.702C328.76 138.238 326.114 138.006 322.942 138.006C318.285 138.006 314.865 138.377 312.637 139.12C310.409 139.863 309.31 140.853 309.31 142.122V142.106ZM317.681 106.657C317.681 109.288 318.13 111.377 319.043 112.939C319.956 114.502 321.225 115.276 322.865 115.276C324.505 115.276 325.789 114.502 326.718 112.939C327.646 111.377 328.11 109.288 328.11 106.657C328.11 104.027 327.646 101.938 326.718 100.375C325.789 98.8123 324.505 98.0386 322.865 98.0386C321.225 98.0386 319.956 98.8123 319.043 100.375C318.13 101.938 317.681 104.027 317.681 106.657Z" fill="white"/>
</svg>
