<svg width="304" height="79" viewBox="0 0 304 79" fill="none" xmlns="http://www.w3.org/2000/svg">
<path d="M47.0406 6.57532C51.7523 6.57532 55.8154 7.12851 59.1727 8.25398C62.5491 9.36037 65.3151 10.8483 67.4706 12.6986C69.6262 14.5489 71.2095 16.7236 72.2205 19.2225C73.2315 21.7214 73.7465 24.3538 73.7465 27.1198C73.7465 31.6407 72.5257 35.5894 70.1031 38.9658C67.6805 42.3422 64.3422 45.0319 60.0884 47.0539L68.8822 63.4399C71.4384 68.3042 73.6321 71.6615 75.4634 73.55C77.2755 75.4385 79.1068 76.3923 80.919 76.3923V77.4033H44.1983L44.2937 76.3923C47.9944 76.3923 49.9592 75.324 50.169 73.2066C50.3788 71.0892 49.3869 67.8273 47.2314 63.4399L41.2607 51.0026H30.8454V66.492C30.8454 69.7349 31.6084 72.1956 33.1154 73.8743C34.6414 75.5529 36.8733 76.4113 39.8491 76.4113V77.4224H0V76.4113C4.17757 76.4113 7.15338 75.1142 8.90834 72.5199C10.6633 69.9256 11.5408 65.9007 11.5408 60.4259V23.5717C11.5408 18.1161 10.7015 14.0721 9.00372 11.4778C7.32506 8.88347 4.65446 7.58633 1.01101 7.58633V6.57532H47.0406ZM52.7061 28.0354C52.7061 23.648 51.5806 20.3289 49.3106 18.0779C47.0406 15.827 43.7214 14.6825 39.3531 14.6825H37.4265C35.1374 14.6825 33.4587 15.2738 32.4096 16.4565C31.3604 17.6392 30.8454 19.2988 30.8454 21.4734V41.4075H38.7427C43.2636 41.4075 46.7163 40.282 49.1199 38.012C51.5043 35.7611 52.7061 32.4229 52.7061 28.0545V28.0354Z" fill="white"/>
<path d="M78.6108 24.7734H105.221V65.4428C105.221 69.4296 105.908 72.2337 107.301 73.8933C108.674 75.5529 110.658 76.3731 113.214 76.3731V77.3841H78.6108V76.3731C81.1097 76.3731 83.0364 75.5529 84.3717 73.8933C85.726 72.2337 86.3937 69.4296 86.3937 65.4428V34.7882C86.3937 31.5453 85.8023 29.2562 84.6196 27.9019C83.437 26.5475 81.434 25.8798 78.5917 25.8798V24.7734H78.6108ZM84.5815 11.0199C84.5815 9.60829 84.8867 8.27299 85.4971 7.014C86.1075 5.77408 86.9087 4.66769 87.9197 3.73298C88.9307 2.79827 90.1325 2.05432 91.506 1.50113C92.8794 0.967011 94.3482 0.699951 95.9124 0.699951C97.4766 0.699951 98.9264 0.967011 100.319 1.50113C101.692 2.03525 102.894 2.7792 103.905 3.73298C104.916 4.68677 105.717 5.77408 106.328 7.014C106.938 8.25392 107.243 9.58921 107.243 11.0199C107.243 12.4506 106.938 13.7668 106.328 15.0258C105.717 16.2657 104.916 17.3721 103.905 18.3068C102.894 19.2606 101.692 19.9855 100.319 20.5386C98.9264 21.0728 97.4766 21.3398 95.9124 21.3398C94.3482 21.3398 92.8985 21.0728 91.506 20.5386C90.1134 20.0045 88.9307 19.2606 87.9197 18.3068C86.9087 17.3721 86.0885 16.2657 85.4971 15.0258C84.8867 13.7859 84.5815 12.4506 84.5815 11.0199Z" fill="white"/>
<path d="M133.358 45.7188C133.358 51.7849 134.846 56.5347 137.803 59.9302C140.778 63.3447 144.918 65.0425 150.24 65.0425C153.063 65.0425 155.486 64.6228 157.47 63.7835C159.453 62.9441 161.132 61.9713 162.486 60.903C164.032 59.7585 165.31 58.4041 166.34 56.859L167.351 57.2596C166.34 61.2464 164.756 64.7754 162.601 67.8847C161.723 69.1628 160.636 70.4409 159.358 71.738C158.08 73.0352 156.611 74.1606 154.952 75.1717C153.292 76.1827 151.423 76.9838 149.343 77.5943C147.245 78.2047 144.899 78.5099 142.266 78.5099C138.356 78.5099 134.769 77.8041 131.488 76.3925C128.207 74.9809 125.384 73.0161 122.981 70.5172C120.577 68.0183 118.708 65.0806 117.372 61.6661C116.018 58.2515 115.35 54.5699 115.35 50.5831C115.35 46.5963 116.018 42.9719 117.372 39.71C118.727 36.448 120.615 33.6248 123.038 31.2595C125.461 28.8941 128.36 27.0628 131.736 25.7466C135.113 24.4304 138.814 23.7818 142.858 23.7818C146.368 23.7818 149.591 24.2396 152.529 25.1552C155.467 26.0709 157.966 27.2726 160.064 28.7987C162.162 30.3248 163.765 32.0416 164.928 33.9682C166.073 35.8948 166.645 37.8215 166.645 39.7863C166.645 42.0181 165.901 44.0592 164.413 45.9096C162.925 47.7599 160.77 48.6946 157.946 48.6946C155.123 48.6946 152.891 47.7408 151.27 45.8142C149.649 43.8876 149.114 41.4077 149.649 38.3747C150.049 35.8758 149.706 33.8919 148.58 32.404C147.455 30.9161 145.757 30.1721 143.468 30.1721C140.435 30.1721 137.993 31.5647 136.124 34.3116C134.274 37.0775 133.339 40.8927 133.339 45.7379L133.358 45.7188Z" fill="white"/>
<path d="M173.722 50.9833C173.722 46.9965 174.428 43.353 175.84 40.0148C177.251 36.6766 179.216 33.7961 181.715 31.3544C184.214 28.9318 187.19 27.0243 190.661 25.6317C194.133 24.2583 197.929 23.5525 202.05 23.5525C206.17 23.5525 209.966 24.2392 213.438 25.6317C216.91 27.0243 219.904 28.9128 222.384 31.3544C224.883 33.7771 226.829 36.6575 228.26 40.0148C229.671 43.353 230.377 47.0156 230.377 50.9833C230.377 54.951 229.671 58.5373 228.26 61.9137C226.848 65.2901 224.883 68.1896 222.384 70.6122C219.885 73.0348 216.91 74.9423 213.438 76.3349C209.966 77.7083 206.17 78.4141 202.05 78.4141C197.929 78.4141 194.133 77.7274 190.661 76.3349C187.19 74.9614 184.195 73.0539 181.715 70.6122C179.216 68.1896 177.27 65.2901 175.84 61.9137C174.428 58.5373 173.722 54.8938 173.722 50.9833ZM191.52 50.8879C191.52 64.4507 195.03 71.2226 202.05 71.2226C205.56 71.2226 208.211 69.5249 209.985 66.1103C211.778 62.6958 212.675 57.6216 212.675 50.8879C212.675 44.1542 211.778 39.061 209.985 35.6655C208.192 32.251 205.54 30.5533 202.05 30.5533C195.03 30.5533 191.52 37.3251 191.52 50.8879Z" fill="white"/>
<path d="M249.109 5.35443C249.72 5.01106 250.597 4.70585 251.742 4.40064C252.886 4.09543 254.031 3.94283 255.175 3.94283C256.797 3.94283 258.227 4.24804 259.467 4.85846C260.707 5.46888 261.795 6.25098 262.71 7.24292C263.626 8.21578 264.313 9.36032 264.789 10.6384C265.266 11.9165 265.495 13.2708 265.495 14.6824C265.495 17.105 264.809 19.6993 263.416 22.4272C262.023 25.155 260.211 28.0354 257.96 31.0684C255.69 34.1015 253.134 37.2871 250.273 40.6253C247.412 43.9636 244.493 47.4163 241.517 51.0025C242.929 50.2013 245.065 49.4764 247.946 48.8279C250.807 48.1793 253.859 47.8741 257.102 47.8741H271.161V28.4551C271.161 26.3567 271.065 24.6399 270.856 23.2856C270.646 21.9312 270.36 20.8629 269.997 20.0427C269.635 19.2415 269.196 18.6502 268.681 18.2687C268.166 17.9062 267.613 17.6201 267.002 17.4102V17.2004C269.368 16.7998 271.695 16.2276 273.984 15.4836C276.273 14.7397 278.429 13.8049 280.451 12.6986C282.473 11.5922 284.304 10.2759 285.963 8.74989C287.623 7.22384 288.939 5.48795 289.969 3.54224H290.98V47.855H303.837V55.5425H290.98V63.4398C290.98 65.8624 291.152 67.9035 291.495 69.5631C291.839 71.2227 292.373 72.5389 293.117 73.569C293.861 74.58 294.891 75.3049 296.207 75.7436C297.523 76.1824 299.126 76.3922 301.014 76.3922V77.4032H260.135V76.3922C262.291 76.3922 264.084 76.1824 265.495 75.7818C266.907 75.3812 268.032 74.6945 268.891 73.7026C269.73 72.7297 270.321 71.3944 270.665 69.6967C271.008 68.018 271.18 65.9197 271.18 63.4208V55.5234H253.077C250.177 55.5234 247.698 55.5997 245.637 55.7714C243.577 55.9431 241.841 56.1339 240.43 56.3818C239.018 56.6108 237.874 56.8969 236.996 57.2402C236.119 57.5836 235.413 57.946 234.879 58.3466L233.658 57.3356C235.947 53.5586 238.274 49.8198 240.64 46.1001C243.005 42.3994 245.142 38.7559 247.068 35.1697C248.995 31.6025 250.559 28.0926 251.78 24.6399C253.001 21.2063 253.592 17.8681 253.592 14.6252C253.592 9.83721 252.104 6.72787 249.147 5.31627L249.109 5.35443Z" fill="white"/>
</svg>
